Coordinates
version=1
nRows=7
nColumns=63
inDegrees=yes

Units are S.I. units (second, meters, Newtons, ...)
If the header above contains a line with 'inDegrees', this indicates whether rotational values are in degrees (yes) or radians (no).

endheader
time	pelvis_tilt	pelvis_list	pelvis_rotation	pelvis_tx	pelvis_ty	pelvis_tz	hip_flexion_r	hip_adduction_r	hip_rotation_r	knee_angle_r	knee_angle_r_beta	ankle_angle_r	subtalar_angle_r	mtp_angle_r	hip_flexion_l	hip_adduction_l	hip_rotation_l	knee_angle_l	knee_angle_l_beta	ankle_angle_l	subtalar_angle_l	mtp_angle_l	L5_S1_Flex_Ext	L5_S1_Lat_Bending	L5_S1_axial_rotation	L4_L5_Flex_Ext	L4_L5_Lat_Bending	L4_L5_axial_rotation	L3_L4_Flex_Ext	L3_L4_Lat_Bending	L3_L4_axial_rotation	L2_L3_Flex_Ext	L2_L3_Lat_Bending	L2_L3_axial_rotation	L1_L2_Flex_Ext	L1_L2_Lat_Bending	L1_L2_axial_rotation	L1_T12_Flex_Ext	L1_T12_Lat_Bending	L1_T12_axial_rotation	Abs_r3	Abs_r2	Abs_r1	Abs_t1	Abs_t2	neck_flexion	neck_bending	neck_rotation	arm_flex_r	arm_add_r	arm_rot_r	elbow_flex_r	pro_sup_r	wrist_flex_r	wrist_dev_r	arm_flex_l	arm_add_l	arm_rot_l	elbow_flex_l	pro_sup_l	wrist_flex_l	wrist_dev_l
      1.76666667	      3.96010118	     -4.33806725	     95.33343861	      0.21556547	      1.09454804	      0.48148343	      3.49949599	      1.99374800	     -6.94600990	      8.93933411	      0.15602081	     24.95371133	     17.69808214	      0.00000000	      5.45363679	     -5.39052202	     -7.68478614	     11.17068247	      0.19496519	     23.53668936	     13.78584519	      0.00000000	      0.01643976	      0.82330570	      0.00156923	      0.03053028	      1.09499658	      0.00166731	      0.02700888	      2.00178548	      0.00166731	      0.01878900	      2.00178548	      0.00137308	      0.01526596	      1.67888499	      0.00127500	      0.00939368	      1.27530053	      0.00117693	      0.11742757	      9.31339876	      0.00872761	      0.00000000	      0.00000000	     21.72573472	     -5.08027343	      8.06279320	      3.78930003	    -19.48230607	     47.24921394	     25.19956745	     85.56245160	     -7.30556735	      5.38418125	      9.87736382	    -13.57734013	     68.67169305	     24.84472484	     81.12281742	     -3.43326385	      0.20764697
      1.78333333	      3.99404848	     -4.28838759	     95.33586322	      0.21530753	      1.09442654	      0.48119314	      3.39249060	      2.02616889	     -6.76276937	      8.90599776	      0.15543898	     24.90245769	     17.48378929	      0.00000000	      5.22379623	     -5.36449308	     -7.27694680	     10.88535473	      0.18998528	     23.23065049	     13.14457906	      0.00000000	      0.01418769	      0.84191614	     -0.03190082	      0.02634796	      1.11974846	     -0.03389462	      0.02330895	      2.04703490	     -0.03389462	      0.01621511	      2.04703490	     -0.02791321	      0.01317469	      1.71683539	     -0.02591941	      0.00810685	      1.30412810	     -0.02392561	      0.10134124	      9.52392374	     -0.17742277	      0.00000000	      0.00000000	     21.64391088	     -4.96942312	      8.69602049	      3.75077325	    -19.43108633	     47.18942006	     24.96441451	     85.40550063	     -7.75837008	      4.66292316	     10.14954544	    -13.16610897	     68.82722602	     24.33353722	     80.44998288	     -2.84984924	      0.52096696
      1.80000000	      3.96475869	     -4.22410467	     94.95291776	      0.21561253	      1.09430099	      0.48101228	      3.36625237	      1.99893040	     -6.53128429	      9.03220351	      0.15764169	     24.91294660	     17.57167870	      0.00000000	      4.86832797	     -5.30567931	     -7.28400054	     10.52289895	      0.18365923	     22.82970362	     12.45854314	      0.00000000	      0.00176859	      0.85433419	     -0.02282569	      0.00328445	      1.13626448	     -0.02425230	      0.00290562	      2.07722815	     -0.02425230	      0.00202132	      2.07722815	     -0.01997248	      0.00164231	      1.74215828	     -0.01854588	      0.00101057	      1.32336366	     -0.01711927	      0.01263287	      9.66439924	     -0.12694966	      0.00000000	      0.00000000	     21.42014719	     -4.71895681	      9.75439310	      4.06810796	    -19.36257861	     48.42854162	     24.44236932	     84.28365076	     -8.46582809	      3.76983940	     10.70319881	    -12.75774992	     70.69231484	     23.60274814	     78.33816037	     -2.37401243	      0.79659025
      1.81666667	      4.03807805	     -4.13945100	     95.36841515	      0.21495068	      1.09396936	      0.48094952	      3.20866345	      2.06099940	     -6.97041115	      8.96564085	      0.15647995	     24.93034305	     17.56368888	      0.00000000	      4.74028688	     -5.30263276	     -6.29899799	     10.36495145	      0.18090253	     22.52678536	     11.61692497	      0.00000000	     -0.00893330	      0.87383742	     -0.14068119	     -0.01659004	      1.16220377	     -0.14947377	     -0.01467653	      2.12464830	     -0.14947377	     -0.01020987	      2.12464830	     -0.12309604	     -0.00829547	      1.78192927	     -0.11430347	     -0.00510449	      1.35357416	     -0.10551090	     -0.06380970	      9.88502366	     -0.78242660	      0.00000000	      0.00000000	     21.36131108	     -4.77887904	     10.48692578	      4.13688143	    -19.27966789	     48.43066805	     24.23968082	     83.45811112	     -8.90731359	      3.37223047	     11.49569542	    -12.32292067	     74.00668677	     22.67971239	     76.72292639	     -2.27992348	      0.43380693
      1.83333333	      4.03397963	     -4.09576233	     95.16787266	      0.21500713	      1.09359240	      0.48094320	      3.19697588	      2.05997507	     -6.78208523	      9.02727983	      0.15755576	     25.03462453	     17.52564196	      0.00000000	      4.47066768	     -5.17720900	     -5.17910864	     10.00467299	      0.17461448	     22.12353096	      9.72410087	      0.00000000	     -0.02661927	      0.88398717	     -0.16058997	     -0.04943464	      1.17570293	     -0.17062684	     -0.04373279	      2.14932640	     -0.17062684	     -0.03042316	      2.14932640	     -0.14051622	     -0.02471865	      1.80262663	     -0.13047935	     -0.01521025	      1.36929612	     -0.12044248	     -0.19013877	      9.99983965	     -0.89315322	      0.00000000	      0.00000000	     21.37025128	     -4.91511804	     11.24604654	      4.30147653	    -19.19383462	     48.35145222	     24.08100889	     83.18623084	     -9.07806175	      3.29962342	     12.17507737	    -11.81610410	     77.33452331	     21.66361495	     75.51640228	     -2.27020983	      0.21947903
      1.85000000	      4.03693025	     -4.07083564	     94.93875988	      0.21525310	      1.09317144	      0.48094140	      3.21066078	      2.07759058	     -6.59889077	      9.07620398	      0.15840964	     25.18239142	     17.55547851	      0.00000000	      4.23590952	     -5.13549897	     -4.79810955	      9.67446152	      0.16885121	     21.94040631	      8.91201812	      0.00000000	     -0.04390688	      0.88848661	     -0.17283925	     -0.08153947	      1.18168720	     -0.18364170	     -0.07213461	      2.16026635	     -0.18364170	     -0.05018117	      2.16026635	     -0.15123434	     -0.04077193	      1.81180190	     -0.14043189	     -0.02508839	      1.37626577	     -0.12962943	     -0.31362246	     10.05073828	     -0.96128004	      0.00000000	      0.00000000	     21.46851824	     -5.08910336	     11.75975950	      4.57508778	    -19.11337686	     48.74750468	     23.92417992	     82.51139091	     -9.08896753	      3.36571024	     12.80452549	    -11.34619023	     81.29668485	     20.66171094	     74.08857104	     -2.73109194	     -0.21715762
      1.86666667	      4.00907728	     -4.07213138	     94.67646935	      0.21570031	      1.09274092	      0.48082728	      3.26006267	      2.07399211	     -6.41942470	      9.13503887	      0.15943651	     25.40629073	     17.63401047	      0.00000000	      3.99932350	     -5.07064130	     -4.49417893	      9.27077700	      0.16180558	     21.79635984	      8.23951412	      0.00000000	     -0.05859480	      0.88295243	     -0.18135367	     -0.10881639	      1.17432673	     -0.19268827	     -0.09626539	      2.14681054	     -0.19268827	     -0.06696799	      2.14681054	     -0.15868446	     -0.05441113	      1.80051660	     -0.14734985	     -0.03348107	      1.36769331	     -0.13601525	     -0.41853677	      9.98813448	     -1.00863468	      0.00000000	      0.00000000	     21.63813020	     -5.18407890	     12.14554700	      5.04323511	    -19.02696365	     50.16122649	     23.64751407	     81.21932860	     -9.10299564	      3.39414445	     13.06250609	    -11.03718024	     83.55105507	     19.96880142	     74.35263911	     -3.19491549	     -0.38631717
